<?xml version="1.0" standalone="no"?>
<!DOCTYPE svg PUBLIC "-//W3C//DTD SVG 20010904//EN"
 "http://www.w3.org/TR/2001/REC-SVG-20010904/DTD/svg10.dtd">
<svg version="1.0" xmlns="http://www.w3.org/2000/svg"
 width="800.000000pt" height="800.000000pt" viewBox="0 0 800.000000 800.000000"
 preserveAspectRatio="xMidYMid meet">
<metadata>
Created by potrace 1.11, written by Peter Selinger 2001-2013
</metadata>
<g transform="translate(0.000000,800.000000) scale(0.100000,-0.100000)"
fill="#000000" stroke="none">
<path d="M3678 7993 c7 -3 16 -2 19 1 4 3 -2 6 -13 5 -11 0 -14 -3 -6 -6z"/>
<path d="M3708 7991 c-1 -5 -36 -12 -76 -15 -234 -20 -522 -76 -772 -151 -78
-24 -308 -104 -355 -125 -22 -10 -74 -32 -115 -50 -209 -91 -448 -223 -645
-358 -97 -67 -180 -127 -195 -142 -3 -3 -36 -30 -75 -61 -108 -86 -160 -134
-290 -264 -304 -303 -512 -587 -734 -998 -43 -80 -135 -290 -183 -417 -93
-244 -170 -531 -212 -790 -9 -52 -18 -104 -20 -116 -17 -85 -26 -794 -11 -914
24 -195 76 -475 114 -610 128 -456 291 -819 529 -1180 53 -80 98 -147 102
-150 3 -3 25 -31 49 -62 131 -181 441 -506 621 -654 589 -485 1225 -769 1990
-890 101 -16 150 -21 215 -25 l40 -2 -35 -7 c-19 -4 141 -7 355 -7 215 0 374
3 355 6 -28 5 -15 9 60 15 112 10 137 13 170 20 13 3 40 8 60 11 20 3 47 8 60
10 14 3 45 10 70 15 71 14 182 39 220 50 144 39 364 108 415 130 11 5 72 30
135 56 694 284 1342 817 1767 1454 319 478 538 1029 628 1585 2 11 7 38 10 60
9 51 11 74 20 165 4 41 9 91 12 110 7 58 12 698 4 655 -6 -35 -7 -30 -14 45
-7 86 -11 111 -27 210 -5 30 -12 78 -16 105 -3 28 -8 53 -10 56 -2 3 -6 21 -9
40 -28 162 -144 541 -225 734 -49 117 -176 374 -227 460 -36 60 -171 271 -185
290 -5 6 -40 53 -79 105 -286 381 -690 754 -1069 987 -165 102 -527 293 -554
293 -3 0 -25 9 -49 19 -203 92 -624 215 -842 246 -11 2 -56 8 -100 15 -119 18
-122 18 -230 25 -55 4 -104 11 -109 16 -6 5 -124 9 -264 9 -200 0 -252 -3
-246 -12 6 -10 4 -10 -8 0 -9 7 -18 9 -20 3z"/>
<path d="M4268 7993 c12 -2 30 -2 40 0 9 3 -1 5 -23 4 -22 0 -30 -2 -17 -4z"/>
</g>
</svg>
